<?xml version="1.0" standalone="no"?>
<svg xmlns="http://www.w3.org/2000/svg" xmlns:xlink="http://www.w3.org/1999/xlink" width="439pt" height="125pt" viewBox="0.00 0.00 439.04 124.80">
<g id="graph0" class="graph" transform="translate(4,120.80000305175781) scale(1)" data-name="G">

<polygon fill="white" stroke="none" points="-4,4 -4,-120.8 435.04,-120.8 435.04,4 -4,4" style=""/>
<!-- A -->
<g id="node1" class="node" pointer-events="visible" data-name="A">

<ellipse fill="none" stroke="black" cx="97.01" cy="-77" rx="18.02" ry="18.02" style=""/>
<text text-anchor="middle" x="97.01" y="-72.8" font-family="Times,serif" font-size="14.00" style="">A</text>
</g>
<!-- D -->
<g id="node2" class="node" pointer-events="visible" data-name="D">

<ellipse fill="none" stroke="black" cx="255.03" cy="-82" rx="18.02" ry="18.02" style=""/>
<text text-anchor="middle" x="255.03" y="-77.8" font-family="Times,serif" font-size="14.00" style="">D</text>
</g>
<!-- A&#45;&gt;D -->
<g id="edge1" class="edge" data-name="A-&gt;D">

<path fill="none" stroke="gray" d="M125.77,-83.84C128.21,-84.29 130.65,-84.69 133.02,-85 170.94,-90.01 180.91,-91.24 219.02,-88 221.23,-87.81 223.52,-87.56 225.8,-87.26" style=""/>
<polygon fill="gray" stroke="gray" points="126.62,-80.44 116.12,-81.78 125.17,-87.29 126.62,-80.44" style=""/>
<polygon fill="gray" stroke="gray" points="226.17,-90.75 235.52,-85.75 225.1,-83.83 226.17,-90.75" style=""/>
<text text-anchor="middle" x="176.02" y="-93.2" font-family="Times,serif" font-size="14.00" style="">1</text>
</g>
<!-- B -->
<g id="node3" class="node" pointer-events="visible" data-name="B">

<ellipse fill="none" stroke="black" cx="176.02" cy="-49" rx="18" ry="18" style=""/>
<text text-anchor="middle" x="176.02" y="-44.8" font-family="Times,serif" font-size="14.00" style="">B</text>
</g>
<!-- A&#45;&gt;B -->
<g id="edge2" class="edge" data-name="A-&gt;B">

<path fill="none" stroke="gray" d="M124.95,-67.2C132.43,-64.49 140.54,-61.54 148.02,-58.82" style=""/>
<polygon fill="gray" stroke="gray" points="123.97,-63.84 115.76,-70.54 126.36,-70.42 123.97,-63.84" style=""/>
<polygon fill="gray" stroke="gray" points="149.09,-62.15 157.29,-55.45 146.7,-55.57 149.09,-62.15" style=""/>
<text text-anchor="middle" x="136.52" y="-68.2" font-family="Times,serif" font-size="14.00" style="">1</text>
</g>
<!-- T -->
<g id="node7" class="node" pointer-events="visible" data-name="T">

<ellipse fill="none" stroke="black" cx="413.04" cy="-71" rx="18" ry="18" style=""/>
<text text-anchor="middle" x="413.04" y="-66.8" font-family="Times,serif" font-size="14.00" style="">T</text>
</g>
<!-- D&#45;&gt;T -->
<g id="edge11" class="edge" data-name="D-&gt;T">

<path fill="none" stroke="gray" d="M282.02,-94.35C285.02,-95.41 288.06,-96.33 291.04,-97 317.49,-102.98 325.11,-101.19 352.04,-98 363.39,-96.66 366.46,-96.32 377.04,-92 380.58,-90.55 384.19,-88.78 387.67,-86.89" style=""/>
<polygon fill="gray" stroke="gray" points="283.64,-91.23 273.06,-90.71 281,-97.72 283.64,-91.23" style=""/>
<polygon fill="gray" stroke="gray" points="389.44,-89.91 396.27,-81.81 385.88,-83.88 389.44,-89.91" style=""/>
<text text-anchor="middle" x="334.04" y="-104.2" font-family="Times,serif" font-size="14.00" style="">18</text>
</g>
<!-- E -->
<g id="node8" class="node" pointer-events="visible" data-name="E">

<ellipse fill="none" stroke="black" cx="334.04" cy="-71" rx="18" ry="18" style=""/>
<text text-anchor="middle" x="334.04" y="-66.8" font-family="Times,serif" font-size="14.00" style="">E</text>
</g>
<!-- D&#45;&gt;E -->
<g id="edge10" class="edge" data-name="D-&gt;E">

<path fill="none" stroke="gray" d="M284.35,-77.95C290.93,-77.02 297.93,-76.02 304.51,-75.07" style=""/>
<polygon fill="gray" stroke="gray" points="284.03,-74.47 274.62,-79.34 285.02,-81.4 284.03,-74.47" style=""/>
<polygon fill="gray" stroke="gray" points="304.83,-78.57 314.23,-73.69 303.84,-71.64 304.83,-78.57" style=""/>
<text text-anchor="middle" x="294.54" y="-80.2" font-family="Times,serif" font-size="14.00" style="">2</text>
</g>
<!-- B&#45;&gt;D -->
<g id="edge7" class="edge" data-name="B-&gt;D">

<path fill="none" stroke="gray" d="M203.39,-60.3C211.23,-63.66 219.82,-67.34 227.66,-70.7" style=""/>
<polygon fill="gray" stroke="gray" points="204.94,-57.16 194.37,-56.43 202.18,-63.59 204.94,-57.16" style=""/>
<polygon fill="gray" stroke="gray" points="226.13,-73.85 236.7,-74.57 228.89,-67.42 226.13,-73.85" style=""/>
<text text-anchor="middle" x="215.52" y="-71.2" font-family="Times,serif" font-size="14.00" style="">7</text>
</g>
<!-- F -->
<g id="node6" class="node" pointer-events="visible" data-name="F">

<ellipse fill="none" stroke="black" cx="255.03" cy="-18" rx="18" ry="18" style=""/>
<text text-anchor="middle" x="255.03" y="-13.8" font-family="Times,serif" font-size="14.00" style="">F</text>
</g>
<!-- B&#45;&gt;F -->
<g id="edge8" class="edge" data-name="B-&gt;F">

<path fill="none" stroke="gray" d="M202.15,-35.6C205.43,-34.03 208.78,-32.52 212.02,-31.2 216.64,-29.32 221.63,-27.53 226.51,-25.93" style=""/>
<polygon fill="gray" stroke="gray" points="200.82,-32.35 193.45,-39.96 203.96,-38.6 200.82,-32.35" style=""/>
<polygon fill="gray" stroke="gray" points="227.5,-29.28 236,-22.97 225.41,-22.6 227.5,-29.28" style=""/>
<text text-anchor="middle" x="215.52" y="-36.2" font-family="Times,serif" font-size="14.00" style="">6</text>
</g>
<!-- I -->
<g id="node4" class="node" pointer-events="visible" data-name="I">

<ellipse fill="none" stroke="black" cx="18" cy="-50" rx="18" ry="18" style=""/>
<text text-anchor="middle" x="18" y="-45.8" font-family="Times,serif" font-size="14.00" style="">I</text>
</g>
<!-- I&#45;&gt;A -->
<g id="edge3" class="edge" data-name="I-&gt;A">

<path fill="none" stroke="gray" d="M45.87,-59.42C53.28,-62.02 61.34,-64.84 68.78,-67.45" style=""/>
<polygon fill="gray" stroke="gray" points="47.36,-56.23 36.76,-56.23 45.04,-62.84 47.36,-56.23" style=""/>
<polygon fill="gray" stroke="gray" points="67.41,-70.68 78.01,-70.69 69.73,-64.08 67.41,-70.68" style=""/>
<text text-anchor="middle" x="57.5" y="-69.2" font-family="Times,serif" font-size="14.00" style="">9</text>
</g>
<!-- C -->
<g id="node5" class="node" pointer-events="visible" data-name="C">

<ellipse fill="none" stroke="black" cx="97.01" cy="-23" rx="18" ry="18" style=""/>
<text text-anchor="middle" x="97.01" y="-18.8" font-family="Times,serif" font-size="14.00" style="">C</text>
</g>
<!-- I&#45;&gt;C -->
<g id="edge4" class="edge" data-name="I-&gt;C">

<path fill="none" stroke="gray" d="M45.94,-40.55C53.42,-37.93 61.53,-35.09 69.01,-32.47" style=""/>
<polygon fill="gray" stroke="gray" points="45.04,-37.16 36.76,-43.77 47.36,-43.77 45.04,-37.16" style=""/>
<polygon fill="gray" stroke="gray" points="69.99,-35.83 78.27,-29.22 67.68,-29.22 69.99,-35.83" style=""/>
<text text-anchor="middle" x="57.5" y="-42.2" font-family="Times,serif" font-size="14.00" style="">2</text>
</g>
<!-- C&#45;&gt;B -->
<g id="edge6" class="edge" data-name="C-&gt;B">

<path fill="none" stroke="gray" d="M126.24,-27.39C130.9,-28.43 135.64,-29.69 140.02,-31.2 143.33,-32.34 146.72,-33.74 150.02,-35.25" style=""/>
<polygon fill="gray" stroke="gray" points="127.02,-23.98 116.54,-25.51 125.69,-30.85 127.02,-23.98" style=""/>
<polygon fill="gray" stroke="gray" points="148.22,-38.26 158.74,-39.58 151.34,-31.99 148.22,-38.26" style=""/>
<text text-anchor="middle" x="136.52" y="-36.2" font-family="Times,serif" font-size="14.00" style="">1</text>
</g>
<!-- C&#45;&gt;F -->
<g id="edge5" class="edge" data-name="C-&gt;F">

<path fill="none" stroke="gray" d="M124.99,-13.2C135.19,-9.97 147,-6.8 158.02,-5.2 181.04,-1.86 207.2,-5.86 226.4,-10.25" style=""/>
<polygon fill="gray" stroke="gray" points="124.09,-9.81 115.72,-16.3 126.31,-16.45 124.09,-9.81" style=""/>
<polygon fill="gray" stroke="gray" points="225.35,-13.6 235.9,-12.61 227.03,-6.8 225.35,-13.6" style=""/>
<text text-anchor="middle" x="176.02" y="-10.2" font-family="Times,serif" font-size="14.00" style="">10</text>
</g>
<!-- F&#45;&gt;T -->
<g id="edge9" class="edge" data-name="F-&gt;T">

<path fill="none" stroke="gray" d="M284.81,-16.83C304.36,-16.97 330.5,-19.01 352.04,-27.2 366.22,-32.58 380.02,-42.26 390.82,-51.15" style=""/>
<polygon fill="gray" stroke="gray" points="284.77,-13.33 274.81,-16.94 284.85,-20.33 284.77,-13.33" style=""/>
<polygon fill="gray" stroke="gray" points="388.46,-53.74 398.31,-57.64 393.04,-48.45 388.46,-53.74" style=""/>
<text text-anchor="middle" x="334.04" y="-32.2" font-family="Times,serif" font-size="14.00" style="">2</text>
</g>
<!-- E&#45;&gt;T -->
<g id="edge12" class="edge" data-name="E-&gt;T">

<path fill="none" stroke="gray" d="M363.98,-71C370.27,-71 376.92,-71 383.2,-71" style=""/>
<polygon fill="gray" stroke="gray" points="364.03,-67.5 354.03,-71 364.03,-74.5 364.03,-67.5" style=""/>
<polygon fill="gray" stroke="gray" points="383.12,-74.5 393.12,-71 383.12,-67.5 383.12,-74.5" style=""/>
<text text-anchor="middle" x="373.54" y="-75.2" font-family="Times,serif" font-size="14.00" style="">9</text>
</g>
</g>
</svg>