<?xml version="1.0" standalone="no"?>
<svg xmlns="http://www.w3.org/2000/svg" xmlns:xlink="http://www.w3.org/1999/xlink" width="331pt" height="182pt" viewBox="0.00 0.00 330.86 181.51">
<g id="graph0" class="graph" transform="translate(6.7533416748046875,164.84461975097656) scale(1)" data-name="W">

<polygon fill="white" stroke="none" points="-4,4 -4,-177.51 326.86,-177.51 326.86,4 -4,4"/>
<!-- A -->
<g id="node1" class="node" pointer-events="visible" data-name="0" data-comment="A">

<ellipse fill="none" stroke="black" cx="18" cy="-131.41" rx="18" ry="18"/>
<text text-anchor="middle" x="18" y="-127.21" font-family="Times,serif" font-size="14.00">0</text>
</g>
<!-- D -->
<g id="node2" class="node" pointer-events="visible" data-name="1" data-comment="D">

<ellipse fill="none" stroke="black" cx="95.35" cy="-86.75" rx="18" ry="18"/>
<text text-anchor="middle" x="95.35" y="-82.55" font-family="Times,serif" font-size="14.00">1</text>
</g>
<!-- A&#45;&gt;D -->
<g id="edge1" class="edge" data-name="0-&gt;1" data-comment="A-&gt;D">

<path fill="none" stroke="gray" d="M43.46,-116.71C51.9,-111.84 61.3,-106.42 69.74,-101.54"/>
<polygon fill="gray" stroke="gray" points="41.87,-113.59 34.96,-121.62 45.37,-119.65 41.87,-113.59"/>
<polygon fill="gray" stroke="gray" points="71.23,-104.72 78.14,-96.69 67.73,-98.66 71.23,-104.72"/>
<text text-anchor="middle" x="53.1" y="-113.32" font-family="Times,serif" font-size="14.00">2</text>
</g>
<!-- 0&#45;&gt;1 -->
<g id="node3" class="node" pointer-events="visible" data-name="2" data-comment="0-&gt;1">

<ellipse fill="none" stroke="black" cx="18" cy="-42.1" rx="18" ry="18"/>
<text text-anchor="middle" x="18" y="-37.9" font-family="Times,serif" font-size="14.00">2</text>
</g>
<!-- 0&#45;&gt;2 -->
<g id="edge2" class="edge" data-name="0-&gt;2">

<path fill="none" stroke="gray" d="M18,-102.01C18,-92.26 18,-81.42 18,-71.66"/>
<polygon fill="gray" stroke="gray" points="14.5,-101.82 18,-111.82 21.5,-101.82 14.5,-101.82"/>
<polygon fill="gray" stroke="gray" points="21.5,-71.96 18,-61.96 14.5,-71.96 21.5,-71.96"/>
<text text-anchor="middle" x="14.5" y="-91.04" font-family="Times,serif" font-size="14.00">6</text>
</g>
<!-- 3 -->
<g id="node4" class="node" pointer-events="visible" data-name="3">

<ellipse fill="none" stroke="black" cx="167.35" cy="-86.75" rx="18" ry="18"/>
<text text-anchor="middle" x="167.35" y="-82.55" font-family="Times,serif" font-size="14.00">3</text>
</g>
<!-- 1&#45;&gt;3 -->
<g id="edge3" class="edge" data-name="1-&gt;3">

<path fill="none" stroke="gray" d="M124.91,-86.75C129.1,-86.75 133.42,-86.75 137.61,-86.75"/>
<polygon fill="gray" stroke="gray" points="125.03,-83.26 115.03,-86.75 125.03,-90.26 125.03,-83.26"/>
<polygon fill="gray" stroke="gray" points="137.42,-90.26 147.42,-86.75 137.42,-83.26 137.42,-90.26"/>
<text text-anchor="middle" x="127.76" y="-90.95" font-family="Times,serif" font-size="14.00">5</text>
</g>

<!-- 3&#45;&gt;5 -->
<g id="edge5" class="edge" data-name="3-&gt;5">

<path fill="none" stroke="gray" d="M188.09,-107.5C196.66,-116.07 206.59,-125.99 215.18,-134.59"/>
<polygon fill="gray" stroke="gray" points="190.9,-105.35 181.35,-100.76 185.95,-110.3 190.9,-105.35"/>
<polygon fill="gray" stroke="gray" points="212.61,-136.97 222.16,-141.57 217.56,-132.02 212.61,-136.97"/>
<text text-anchor="middle" x="194.64" y="-125.24" font-family="Times,serif" font-size="14.00">15</text>
</g>
<!-- 4 -->
<g id="node6" class="node" pointer-events="visible" data-name="4">

<ellipse fill="none" stroke="black" cx="236.1" cy="-18" rx="18" ry="18"/>
<text text-anchor="middle" x="236.1" y="-13.8" font-family="Times,serif" font-size="14.00">4</text>
</g><!-- 2&#45;&gt;3 -->
<g id="edge4" class="edge" data-name="2-&gt;3">

<path fill="none" stroke="gray" d="M46.47,-50.61C72.98,-58.54 112.27,-70.29 138.8,-78.22"/>
<polygon fill="gray" stroke="gray" points="47.75,-47.34 37.17,-47.83 45.75,-54.05 47.75,-47.34"/>
<polygon fill="gray" stroke="gray" points="137.62,-81.52 148.2,-81.03 139.63,-74.81 137.62,-81.52"/>
<text text-anchor="middle" x="89.14" y="-51.81" font-family="Times,serif" font-size="14.00">8</text>
</g>
<!-- 5 -->
<g id="node5" class="node" pointer-events="visible" data-name="5">

<ellipse fill="none" stroke="black" cx="236.1" cy="-155.51" rx="18" ry="18"/>
<text text-anchor="middle" x="236.1" y="-151.31" font-family="Times,serif" font-size="14.00">5</text>
</g>
<!-- 3&#45;&gt;4 -->
<g id="edge6" class="edge" data-name="3-&gt;4">

<path fill="none" stroke="gray" d="M188.09,-66.01C196.66,-57.44 206.59,-47.52 215.18,-38.92"/>
<polygon fill="gray" stroke="gray" points="185.95,-63.21 181.35,-72.75 190.9,-68.16 185.95,-63.21"/>
<polygon fill="gray" stroke="gray" points="217.56,-41.49 222.16,-31.94 212.61,-36.54 217.56,-41.49"/>
<text text-anchor="middle" x="194.64" y="-56.67" font-family="Times,serif" font-size="14.00">10</text>
</g>
<!-- 6 -->
<g id="node7" class="node" pointer-events="visible" data-name="6">

<ellipse fill="none" stroke="black" cx="304.86" cy="-86.75" rx="18" ry="18"/>
<text text-anchor="middle" x="304.86" y="-82.55" font-family="Times,serif" font-size="14.00">6</text>
</g>
<!-- 5&#45;&gt;6 -->
<g id="edge9" class="edge" data-name="5-&gt;6">

<path fill="none" stroke="gray" d="M256.85,-134.77C265.42,-126.2 275.34,-116.27 283.94,-107.68"/>
<polygon fill="gray" stroke="gray" points="254.7,-131.96 250.11,-141.51 259.65,-136.91 254.7,-131.96"/>
<polygon fill="gray" stroke="gray" points="286.32,-110.25 290.91,-100.7 281.37,-105.3 286.32,-110.25"/>
<text text-anchor="middle" x="266.89" y="-125.42" font-family="Times,serif" font-size="14.00">6</text>
</g>
<!-- 4&#45;&gt;5 -->
<g id="edge7" class="edge" data-name="4-&gt;5">

<path fill="none" stroke="gray" d="M236.1,-47.43C236.1,-70.6 236.1,-102.75 236.1,-125.95"/>
<polygon fill="gray" stroke="gray" points="239.6,-47.77 236.1,-37.77 232.6,-47.77 239.6,-47.77"/>
<polygon fill="gray" stroke="gray" points="232.6,-125.66 236.1,-135.66 239.6,-125.66 232.6,-125.66"/>
<text text-anchor="middle" x="232.6" y="-90.89" font-family="Times,serif" font-size="14.00">6</text>
</g>
<!-- 4&#45;&gt;6 -->
<g id="edge8" class="edge" data-name="4-&gt;6">

<path fill="none" stroke="gray" d="M256.85,-38.74C265.42,-47.31 275.34,-57.24 283.94,-65.83"/>
<polygon fill="gray" stroke="gray" points="259.65,-36.6 250.11,-32 254.7,-41.55 259.65,-36.6"/>
<polygon fill="gray" stroke="gray" points="281.37,-68.21 290.91,-72.81 286.32,-63.26 281.37,-68.21"/>
<text text-anchor="middle" x="266.89" y="-56.49" font-family="Times,serif" font-size="14.00">2</text>
</g>
</g>
</svg>